# xmcd
#
# Track frame offsets: 
#        150
#        16213
#        24274
#        47559
#        63945
#        74944
#        94324
#        112207
#        132034
#        152431
#        167078
#        185196
#
# Disc length: 2703 seconds
#
# Revision: 1
# Processed by: cddbd v1.5.2PL0 Copyright (c) Steve Scherf et al.
# Submitted via: ExactAudioCopyFreeDBPlugin 1.0
#
DISCID=a40a8d0c
DTITLE=John Mayall and The Bluesbreakers - Crusade [2011 Sundazed Mono]
DYEAR=1967
DGENRE=Blues
TTITLE0=Oh, Pretty Woman
TTITLE1=Stand Back Baby
TTITLE2=My Time After Awhile
TTITLE3=Snowy Wood
TTITLE4=Man Of Stone
TTITLE5=Tears In My Eyes
TTITLE6=Driving Sideways
TTITLE7=The Death Of J. B. Lenoir
TTITLE8=I Can't Quit You Baby
TTITLE9=Streamline
TTITLE10=Me And My Woman
TTITLE11=Checking On My Baby
EXTD=
EXTT0=Oh, Pretty Woman
EXTT1=Stand Back Baby
EXTT2=My Time After Awhile
EXTT3=Snowy Wood
EXTT4=Man of Stone
EXTT5=Tears in My Eyes
EXTT6=Driving Sideways
EXTT7=The Death of J. B. Lenoir
EXTT8=I Can't Quit You Baby
EXTT9=Streamline
EXTT10=Me and My Woman
EXTT11=Checkin' Up on My Baby
PLAYORDER=
